<?xml version="1.0" encoding="UTF-8" standalone="no"?>
<svg
   version="1.1"
   width="300"
   height="300"
   id="svg23"
   sodipodi:docname="logo.svg"
   inkscape:version="1.4.2 (ebf0e940d0, 2025-05-08)"
   inkscape:export-filename="logo_transparent_521x512.png"
   inkscape:export-xdpi="163.84"
   inkscape:export-ydpi="163.84"
   xmlns:inkscape="http://www.inkscape.org/namespaces/inkscape"
   xmlns:sodipodi="http://sodipodi.sourceforge.net/DTD/sodipodi-0.dtd"
   xmlns:xlink="http://www.w3.org/1999/xlink"
   xmlns="http://www.w3.org/2000/svg"
   xmlns:svg="http://www.w3.org/2000/svg">
  <defs
     id="defs23">
    <linearGradient
       id="linearGradient2"
       inkscape:collect="always">
      <stop
         style="stop-color:#c76600;stop-opacity:1;"
         offset="0.05625213"
         id="stop1" />
      <stop
         style="stop-color:#ffd026;stop-opacity:1;"
         offset="0.87724584"
         id="stop2" />
    </linearGradient>
    <linearGradient
       id="linearGradient27"
       inkscape:collect="always">
      <stop
         style="stop-color:#981c19;stop-opacity:1;"
         offset="0"
         id="stop27" />
      <stop
         style="stop-color:#f98f04;stop-opacity:1;"
         offset="1"
         id="stop28" />
    </linearGradient>
    <linearGradient
       inkscape:collect="always"
       xlink:href="#linearGradient27"
       id="linearGradient28"
       x1="264.08371"
       y1="225.57739"
       x2="265.09158"
       y2="167.65265"
       gradientUnits="userSpaceOnUse" />
    <linearGradient
       inkscape:collect="always"
       xlink:href="#linearGradient2"
       id="linearGradient29"
       gradientUnits="userSpaceOnUse"
       x1="267.11227"
       y1="225.47157"
       x2="262.06302"
       y2="167.75847"
       gradientTransform="translate(-106.00062,-123.44627)" />
  </defs>
  <sodipodi:namedview
     id="namedview23"
     pagecolor="#505050"
     bordercolor="#eeeeee"
     borderopacity="1"
     inkscape:showpageshadow="0"
     inkscape:pageopacity="0"
     inkscape:pagecheckerboard="0"
     inkscape:deskcolor="#505050"
     inkscape:zoom="0.99999999"
     inkscape:cx="186"
     inkscape:cy="103.5"
     inkscape:window-width="1256"
     inkscape:window-height="742"
     inkscape:window-x="0"
     inkscape:window-y="0"
     inkscape:window-maximized="1"
     inkscape:current-layer="svg23" />
  <path
     d="m 0,0 c 98.99988,0 197.99975,0 299.99962,0 0,98.99988 0,197.99975 0,299.99962 -98.99988,0 -197.99975,0 -299.99962,0 C 0,200.99974 0,101.99987 0,0 Z"
     fill="#070911"
     id="path25"
     inkscape:label="Background_Light"
     style="display:none;fill:#f2f2f2;fill-opacity:1;stroke-width:0.585937" />
  <path
     d="m 0,0 c 98.9996,0 197.99918,0 299.99876,0 0,98.9996 0,197.99918 0,299.99876 -98.9996,0 -197.99918,0 -299.99876,0 C 0,200.99916 0,101.99958 0,0 Z"
     fill="#070911"
     id="path1"
     inkscape:label="Background_Dark"
     style="display:none;stroke-width:0.585934" />
  <rect
     style="display:none;fill:#ffffff;fill-opacity:0.32181;stroke-width:0.899382"
     id="rect1"
     width="137.59026"
     height="210.03862"
     x="225.51247"
     y="184.07109"
     ry="0"
     transform="matrix(1,0,-0.1431962,0.98969432,0,0)" />
  <g
     inkscape:groupmode="layer"
     id="layer5"
     inkscape:label="F">
    <path
       d="m 0,0 c 33.868371,0.1149645 67.737003,0.18096891 101.60522,0.34057616 -0.1579,1.76290654 -0.31648,3.52575324 -0.47534,5.28857424 l -0.26738,2.974823 C 99.767338,20.252954 97.684591,31.234279 88.605225,39.340576 c -7.214764,4.7952 -13.544283,5.709777 -22.059082,5.567627 l -3.521622,0.0022 c -34.857223,-0.06905 -69.5800624,-0.116847 -104.368503,-0.319825 1.058845,-7.601891 0.230207,-2.078917 1.158587,-8.997603 1.442984,-10.963033 4.348711,-18.828482 12.153901,-26.6078696 C -19.331007,1.5565422 -11.244802,-0.11840998 0,0 Z"
       fill="#991c19"
       transform="translate(234.39478,181.65942)"
       id="path3"
       inkscape:label="Upper_Part"
       sodipodi:nodetypes="ccccccccccc"
       style="display:none" />
    <path
       d="m 82.99938,133.55373 h 121 c -4.81586,33.711 -4.81586,33.711 -14,41 -5.79424,3.86986 -11.47392,3.38499 -18.17969,3.29297 -13.60682,-0.0803 -27.21379,-0.16774 -40.82031,-0.29297 -1.08992,8.78168 -2.19682,17.56124 -3.29187,26.34228 -5.27474,42.29064 -5.27474,42.29064 -20.70813,55.12256 -9.648429,7.40593 -19.234182,7.83762 -31.0625,7.66016 -3.979313,-0.0271 -7.958507,-0.0676 -11.9375,-0.125 5.653184,-44.41281 12.217617,-88.73839 19,-133 z"
       fill="#981c19"
       id="path2"
       inkscape:label="Lower_Part"
       sodipodi:nodetypes="cccccccccc"
       style="fill:#981c19;fill-opacity:1" />
  </g>
  <g
     inkscape:groupmode="layer"
     id="layer6"
     inkscape:label="Flames"
     style="display:none">
    <path
       d="m 0,0 c 3.8704226,3.579972 6.6173863,7.2558094 9.1875,11.875 0.5133691,0.879785 0.5133691,0.879785 1.037109,1.777344 C 14.261884,20.786168 15.296061,27.355843 15.5625,35.375 15.281644,40.599899 15.281644,40.599899 17,45 c 3.330744,0.584783 3.330744,0.584783 7,0 3.037015,-2.435778 4.769395,-5.308184 6,-9 0.07051,-2.738653 0.09358,-5.450276 0.0625,-8.1875 C 30.058,27.06291 30.0535,26.31332 30.04883,25.541016 30.037064,23.693976 30.019129,21.846978 30,20 c 2.627143,2.343749 4.032103,4.718257 5.5625,7.875 0.413789,0.843047 0.827578,1.686094 1.253906,2.554687 C 40.881724,39.258 43.11716,49.319995 40.09375,58.859375 37.625773,64.206657 35.279274,67.360363 30,70 c -3.177875,1.059292 -5.425889,1.114589 -8.761719,1.097656 -1.677392,-0.0048 -1.677392,-0.0048 -3.388672,-0.0098 -1.167246,-0.0084 -2.334492,-0.01676 -3.537109,-0.02539 -1.178848,-0.0045 -2.357695,-0.009 -3.572266,-0.01367 C 7.8267721,71.037033 4.9134114,71.020573 2,71 2,68.03 2,65.06 2,62 1.443125,62.763125 0.88625,63.52625 0.3125,64.3125 -4.254566,69.620171 -8.2894725,70.431311 -15,71 c 0.193359,-0.640664 0.386719,-1.281328 0.585937,-1.941406 0.260391,-0.864961 0.520782,-1.729922 0.789063,-2.621094 0.255234,-0.846914 0.510469,-1.693828 0.773437,-2.566406 C -12.570547,62.923633 -12.289531,61.976172 -12,61 c 0.350625,-1.051875 0.70125,-2.10375 1.0625,-3.1875 1.1741011,-4.774678 1.393217,-9.351375 1.5625,-14.25 0.058008,-1.383486 0.058008,-1.383486 0.1171875,-2.794922 C -9.1643132,38.511909 -9.0785609,36.256231 -9,34 -8.0692969,33.572031 -7.1385937,33.144062 -6.1796875,32.703125 -1.651653,30.27779 0.32705868,27.853684 2,23 2.8334081,15.129879 2.4595015,7.5322234 0,0 Z"
       fill="#f88c0a"
       transform="translate(300,104)"
       id="path5"
       inkscape:label="Fire_Up_Right" />
    <path
       d="M 0,0 C 0.495,0.99 0.495,0.99 1,2 0.67,2.99 0.34,3.98 0,5 -1.2312608,22.964297 5.2444545,33.203234 16.1875,47.0625 24.221989,57.58813 27.187946,67.918938 26,81 22.922129,92.676587 15.866503,100.44501 6,107 c -2.4054564,1.20273 -3.9499695,1.10071 -6.625,1.0625 -0.8172656,-0.009 -1.6345313,-0.0181 -2.4765625,-0.0273 C -3.7280469,108.02355 -4.3545312,108.01195 -5,108 c 0.4937109,-1.03641 0.9874219,-2.07281 1.4960937,-3.14062 0.647325,-1.36971 1.29445,-2.7395 1.9414063,-4.10938 0.4882324,-1.022871 0.4882324,-1.022871 0.98632812,-2.066406 0.31259766,-0.663867 0.62519532,-1.327735 0.94726563,-2.011719 0.2880249,-0.607471 0.5760498,-1.214941 0.87280275,-1.84082 C 4.2278959,87.604708 4.7020067,78.156499 2.2426758,70.705566 -1.0289635,62.172008 -1.0289635,62.172008 -7,56 c 0.023203,0.917812 0.046406,1.835625 0.070312,2.78125 C -6.7376832,71.837543 -6.7376832,71.837543 -9,78 c -0.33,0.911367 -0.66,1.822734 -1,2.761719 -2.851661,7.326142 -6.431737,13.844775 -11,20.238281 -0.436992,0.65484 -0.873984,1.30969 -1.324219,1.98438 -2.296663,2.89669 -3.847847,3.8898 -7.554687,4.45312 -2.244846,0.12722 -4.491234,0.22926 -6.738281,0.30859 -10.387294,0.77965 -18.689236,6.08605 -25.632813,13.56641 -3.977423,4.87695 -6.357982,10.58192 -7.75,16.6875 -0.66,0 -1.32,0 -2,0 -5.980095,-13.22015 -8.451339,-23.31537 -8,-38 -0.0052,-0.792773 -0.01031,-1.585547 -0.01563,-2.402344 0.303289,-7.900679 4.571901,-18.655293 9.742188,-24.574219 C -69.643086,72.516836 -69.643086,72.516836 -69,72 c -0.165,0.61875 -0.33,1.2375 -0.5,1.875 -1.114689,6.966804 -1.432145,12.990854 2.5,19.125 1.2159,1.431559 1.2159,1.431559 4.8125,1.3125 2.942203,-0.0635 4.113637,-0.271065 6.75,-1.75 C -53.228945,88.625511 -54.067258,85.296487 -55,81 c -0.350625,-1.11375 -0.70125,-2.2275 -1.0625,-3.375 -2.96887,-11.479631 0.205777,-21.819955 5.953125,-31.960938 C -48.463983,43.062204 -46.778893,40.511981 -45,38 c 0.33,0.99 0.66,1.98 1,3 -0.495,0.99 -0.495,0.99 -1,2 -0.178095,2.931269 -0.277693,5.816905 -0.3125,8.75 -0.029,0.799219 -0.05801,1.598438 -0.08789,2.421875 C -45.458554,59.612408 -44.65315,62.708371 -41,67 c 3.365772,2.243848 5.068267,2.304431 9.007813,1.640625 C -28.366048,67.474572 -26.673401,65.238453 -25,62 -22.311279,55.249182 -20.85584,48.401654 -19.6875,41.25 -17.306025,27.257355 -10.746598,9.7515424 0,0 Z"
       fill="#f89109"
       transform="translate(262,67)"
       id="path4"
       inkscape:label="Fire_Up_Left" />
  </g>
  <g
     inkscape:groupmode="layer"
     id="layer7"
     inkscape:label="Flames_2"
     style="display:none">
    <path
       d="m 284.31921,182.01693 c 6.43076,-5.7383 19.44114,-13.30459 30.51143,-14.42102 -11.02814,9.86955 -14.91868,20.02555 -15.2241,25.753 16.28708,-5.75159 37.84439,-35.52358 37.84439,-35.52358 0,0 2.98429,68.57729 -26.22273,68.57729 l -117.91179,-0.045 c 6.14289,-41.23282 40.22428,-58.90473 40.22428,-58.90473 0,0 -5.73661,8.82059 -6.58743,28.67638 14.61702,-14.33669 17.32609,-12.20013 28.23072,-18.82331 14.94627,-9.07798 9.56922,-22.35848 9.56922,-22.35848 0,0 10.82882,9.42901 8.38966,20.58168 -2.69939,12.34256 -4.8236,15.17925 -8.77488,21.64691 7.11785,-1.8771 12.24912,-8.28639 19.95123,-15.15914 z"
       fill="#fb8618"
       id="path2-5"
       inkscape:label="Letter"
       style="fill:#070911;fill-opacity:1;fill-rule:nonzero;stroke-width:0.763565"
       clip-path="none"
       sodipodi:nodetypes="scccccccscscs" />
  </g>
  <g
     inkscape:groupmode="layer"
     id="g26"
     inkscape:label="Flames_2_Gradient"
     style="display:inline;fill:url(#linearGradient28)">
    <path
       d="m 178.31859,58.57066 c 6.43076,-5.7383 19.44114,-13.30459 30.51143,-14.42102 -11.02814,9.86955 -14.91868,20.02555 -15.2241,25.753 16.28708,-5.75159 37.84439,-35.52358 37.84439,-35.52358 0,0 2.98429,68.57729 -26.22273,68.57729 l -117.91179,-0.045 c 6.14289,-41.23282 40.22428,-58.90473 40.22428,-58.90473 0,0 -5.73661,8.82059 -6.58743,28.67638 14.61702,-14.33669 17.32609,-12.20013 28.23072,-18.82331 14.94627,-9.07798 9.56922,-22.35848 9.56922,-22.35848 0,0 10.82882,9.42901 8.38966,20.58168 -2.69939,12.34256 -4.8236,15.17925 -8.77488,21.64691 7.11785,-1.8771 12.24912,-8.28639 19.95123,-15.15914 z"
       fill="#fb8618"
       id="path27"
       inkscape:label="Letter"
       style="display:inline;fill:url(#linearGradient29);fill-opacity:0.999309;fill-rule:nonzero;stroke-width:0.763565"
       clip-path="none"
       sodipodi:nodetypes="scccccccscscs" />
  </g>
</svg>
